<?xml version="1.0" encoding="UTF-8"?>
<!DOCTYPE svg PUBLIC "-//W3C//DTD SVG 1.1//EN" "http://www.w3.org/Graphics/SVG/1.1/DTD/svg11.dtd">
<!-- Creator: CorelDRAW -->
<svg xmlns="http://www.w3.org/2000/svg" xml:space="preserve" width="6.82666in" height="6.82666in" style="shape-rendering:geometricPrecision; text-rendering:geometricPrecision; image-rendering:optimizeQuality; fill-rule:evenodd; clip-rule:evenodd"
viewBox="0 0 6.82666 6.82666"
 xmlns:xlink="http://www.w3.org/1999/xlink">
 <defs>
  <style type="text/css">
   <!-- <![CDATA[
    .fil1 {fill:#FEFEFE;fill-rule:nonzero}
    .fil0 {fill:url(#id0)}
   ]]> -->
  </style>
  <linearGradient id="id0" gradientUnits="userSpaceOnUse" x1="1.68784" y1="0.424697" x2="5.13882" y2="6.40196">
   <stop offset="0" style="stop-color:#444FF5"/>
   <stop offset="0.490196" style="stop-color:#21BFDB"/>
   <stop offset="1" style="stop-color:#1DABB6"/>
  </linearGradient>
 </defs>
 <g id="Layer_x0020_1">
  <metadata id="CorelCorpID_0Corel-Layer"/>
  <path class="fil0" d="M6.36936 1.70667c0.942567,1.63257 0.383209,3.72013 -1.24937,4.6627 -1.63257,0.942567 -3.72013,0.383209 -4.6627,-1.24937 -0.942567,-1.63257 -0.383209,-3.72013 1.24937,-4.6627 1.63257,-0.942567 3.72013,-0.383209 4.6627,1.24937z"/>
  <g id="_435297960">
   <path id="_435297720" class="fil1" d="M1.68214 1.08l3.46239 0c0.0402717,0 0.0729173,0.0326457 0.0729173,0.0729134l0 4.52083c0,0.0402677 -0.0326457,0.0729134 -0.0729173,0.0729134l-3.46239 0c-0.0402717,0 -0.0729173,-0.0326457 -0.0729173,-0.0729134l0 -4.52083c0,-0.0402677 0.0326457,-0.0729134 0.0729173,-0.0729134zm3.38947 0.145831l-3.31655 0 0 4.375 3.31655 0 0 -4.375z"/>
   <path id="_435297432" class="fil1" d="M2.1653 1.54724c-0.0402677,0 -0.0729173,0.0326457 -0.0729173,0.0729134 0,0.0402717 0.0326496,0.0729173 0.0729173,0.0729173l2.49607 0c0.0402677,0 0.0729134,-0.0326457 0.0729134,-0.0729173 0,-0.0402677 -0.0326457,-0.0729134 -0.0729134,-0.0729134l-2.49607 0z"/>
   <path id="_435298176" class="fil1" d="M2.1653 2.07386c-0.0402677,0 -0.0729173,0.0326496 -0.0729173,0.0729173 0,0.0402717 0.0326496,0.0729173 0.0729173,0.0729173l2.49607 0c0.0402677,0 0.0729134,-0.0326457 0.0729134,-0.0729173 0,-0.0402677 -0.0326457,-0.0729173 -0.0729134,-0.0729173l-2.49607 0z"/>
   <path id="_435297768" class="fil1" d="M2.1653 2.60049c-0.0402677,0 -0.0729173,0.0326496 -0.0729173,0.0729173 0,0.0402717 0.0326496,0.0729173 0.0729173,0.0729173l2.49607 0c0.0402677,0 0.0729134,-0.0326457 0.0729134,-0.0729173 0,-0.0402677 -0.0326457,-0.0729173 -0.0729134,-0.0729173l-2.49607 0z"/>
   <path id="_435297600" class="fil1" d="M2.1653 3.12711c-0.0402677,0 -0.0729173,0.0326496 -0.0729173,0.0729173 0,0.0402677 0.0326496,0.0729173 0.0729173,0.0729173l2.49607 0c0.0402677,0 0.0729134,-0.0326496 0.0729134,-0.0729173 0,-0.0402677 -0.0326457,-0.0729173 -0.0729134,-0.0729173l-2.49607 0z"/>
   <path id="_435298032" class="fil1" d="M3.6358 3.82156c0.0215236,0.00669291 0.0425197,0.0142992 0.0629409,0.0227638 0.020622,0.00855118 0.0408622,0.0180591 0.0606575,0.0284724l0.113492 -0.113492 -3.93701e-006 -3.93701e-006c0.0284724,-0.0284724 0.0746417,-0.0284724 0.103118,0l0.000259843 0.000271654 0.211228 0.211228 3.93701e-006 -3.93701e-006c0.0284764,0.0284724 0.0284764,0.0746417 0,0.103118l-0.000267717 0.000259843 -0.113232 0.113236c0.0104134,0.0197953 0.0199213,0.0400315 0.0284724,0.0606575 0.00846457,0.0204173 0.0160709,0.0414134 0.0227638,0.0629331l0.160472 0c0.0402677,0 0.0729173,0.0326457 0.0729173,0.0729173l0 0.299094c0,0.0402717 -0.0326496,0.0729173 -0.0729173,0.0729173l-0.160472 0c-0.00669291,0.0215197 -0.0142992,0.0425157 -0.0227638,0.0629331 -0.00855118,0.020626 -0.0180551,0.0408622 -0.0284724,0.0606614l0.113496 0.113496 3.93701e-006 -3.93701e-006c0.0284764,0.0284764 0.0284764,0.0746457 0,0.103118l-0.000267717 0.00026378 -0.211228 0.211228 3.93701e-006 3.93701e-006c-0.0284764,0.0284724 -0.0746457,0.0284724 -0.103118,0l-0.00026378 -0.000271654 -0.113228 -0.113228c-0.0197953,0.0104173 -0.0400354,0.0199252 -0.0606614,0.0284764 -0.0204213,0.00846457 -0.0414134,0.0160709 -0.0629331,0.0227638l0 0.160465c0,0.0402717 -0.0326496,0.0729173 -0.0729173,0.0729173l-0.299098 0c-0.0402677,0 -0.0729173,-0.0326457 -0.0729173,-0.0729173l0 -0.160465c-0.0215197,-0.00669291 -0.0425157,-0.0142992 -0.0629331,-0.0227638 -0.020626,-0.00855118 -0.0408661,-0.0180591 -0.0606614,-0.0284764l-0.113496 0.113496 3.93701e-006 3.93701e-006c-0.0284724,0.0284724 -0.0746417,0.0284724 -0.103118,0l-0.000259843 -0.000271654 -0.211228 -0.211228 -3.93701e-006 3.93701e-006c-0.0284724,-0.0284724 -0.0284724,-0.0746417 0,-0.103118l0.000267717 -0.000259843 0.113232 -0.113232c-0.0104173,-0.0197992 -0.0199213,-0.0400354 -0.0284724,-0.0606614 -0.00846457,-0.0204173 -0.0160709,-0.0414134 -0.0227598,-0.0629331l-0.160476 0c-0.0402677,0 -0.0729173,-0.0326457 -0.0729173,-0.0729173l0 -0.299094c0,-0.0402717 0.0326496,-0.0729173 0.0729173,-0.0729173l0.160476 0c0.00668898,-0.0215197 0.0142913,-0.0425118 0.0227559,-0.0629291 0.00855118,-0.020626 0.0180591,-0.0408661 0.0284764,-0.0606654l-0.113496 -0.113496 0.0515551 -0.0515551 -0.051563 0.0515591c-0.0284724,-0.0284764 -0.0284685,-0.0746457 3.93701e-006,-0.103122l0.000405512 -0.000393701 0.211091 -0.211094 -3.93701e-006 -3.93701e-006c0.0284764,-0.0284724 0.0746457,-0.0284724 0.103118,0l0.00026378 0.000271654 0.113224 0.113224c0.0197953,-0.0104134 0.0400354,-0.0199213 0.0606575,-0.0284724 0.0204213,-0.00846457 0.0414173,-0.0160709 0.0629409,-0.0227638l0 -0.160461c0,-0.0402717 0.0326496,-0.0729173 0.0729173,-0.0729173l0.299098 0c0.0402677,0 0.0729173,0.0326457 0.0729173,0.0729173l0 0.160461zm0.00711024 0.157205c-0.0294961,-0.0122244 -0.0598425,-0.0221181 -0.0907717,-0.029437 -0.0351732,-0.00519685 -0.0621732,-0.0355118 -0.0621732,-0.0721299l0 -0.143185 -0.153264 0 0 0.142075c0.000547244,0.0337638 -0.0225433,0.0644528 -0.0567835,0.0722205l-0.0161339 -0.0711102 0.0159488 0.0709252c-0.0327323,0.00742126 -0.0648268,0.0177323 -0.0959764,0.0306417 -0.0300118,0.0124409 -0.0585591,0.0270669 -0.0854173,0.0436496 -0.0285394,0.0210906 -0.0689685,0.0187126 -0.0948189,-0.0071378l3.93701e-006 -3.93701e-006 -0.101303 -0.101303 -0.108382 0.108386 0.10015 0.100154c0.0245748,0.0234567 0.0301024,0.0617244 0.0112913,0.0915787l-0.000181102 -0.000114173c-0.0177441,0.0281614 -0.0333228,0.0582283 -0.0464606,0.0899291 -0.0122323,0.0295 -0.0221181,0.0598307 -0.0294409,0.0907638 -0.00520079,0.0351693 -0.0355118,0.0621654 -0.072126,0.0621654l-0.143193 0 0 0.153268 0.141709 0c0.0339094,-0.000724409 0.0647913,0.0224134 0.0725906,0.0567756l-0.0711063 0.0161378 0.0709213 -0.0159488c0.00742913,0.0327283 0.0177323,0.0648189 0.0306496,0.0959724 0.0124449,0.0300118 0.0270669,0.058563 0.0436457,0.0854173 0.0210866,0.0285394 0.0187087,0.0689724 -0.00714173,0.0948228l-3.93701e-006 -3.93701e-006 -0.101303 0.101303 0.108382 0.108386 0.100146 -0.100146c0.0234606,-0.0245787 0.0617244,-0.0301024 0.0915827,-0.0112913l-0.00011811 0.000177165c0.0281654,0.0177441 0.0582323,0.0333228 0.0899331,0.0464646 0.0294961,0.0122283 0.0598346,0.0221181 0.0907638,0.029437 0.0351732,0.00519685 0.0621732,0.0355118 0.0621732,0.0721299l0 0.143185 0.153264 0 0 -0.142075c-0.000547244,-0.0337638 0.0225433,-0.0644528 0.0567835,-0.0722205l0.0161339 0.0711102 -0.0159488 -0.0709213c0.0327323,-0.0074252 0.0648189,-0.0177323 0.0959724,-0.0306457 0.0300118,-0.0124449 0.058563,-0.0270709 0.0854213,-0.0436496 0.0285394,-0.0210906 0.0689685,-0.0187126 0.0948189,0.0071378l-3.93701e-006 3.93701e-006 0.101303 0.101303 0.108382 -0.108386 -0.100146 -0.10015c-0.0245787,-0.0234567 -0.0301063,-0.0617244 -0.0112953,-0.0915787l0.000181102 0.000114173c0.0177441,-0.0281614 0.0333189,-0.0582283 0.0464567,-0.0899252 0.0122362,-0.0295079 0.022126,-0.0598504 0.0294488,-0.0907874 0.00520472,-0.0351614 0.0355118,-0.0621496 0.072122,-0.0621496l0.143193 0 0 -0.153268 -0.141709 0c-0.0339094,0.000724409 -0.0647913,-0.0224134 -0.0725906,-0.0567756l0.0711063 -0.0161378 -0.0709213 0.0159488c-0.00742913,-0.0327283 -0.0177323,-0.0648189 -0.0306496,-0.0959724 -0.012437,-0.0300039 -0.0270591,-0.0585433 -0.0436299,-0.0853858 -0.0211063,-0.0285394 -0.0187362,-0.0689921 0.00712205,-0.0948504l0.051563 0.0515591 -0.0515551 -0.0515551 0.101303 -0.101307 -0.108382 -0.108386 -0.10015 0.10015c-0.0234567,0.0245787 -0.0617244,0.0300945 -0.0915787,0.0112874l0.000114173 -0.000181102c-0.0281614,-0.0177402 -0.0582283,-0.0333228 -0.0899213,-0.0464606z"/>
   <path id="_435297984" class="fil1" d="M3.41333 4.16458c0.10185,0 0.194075,0.0412953 0.260831,0.108047 0.066752,0.0667559 0.108047,0.158984 0.108047,0.260831 0,0.10185 -0.0412953,0.194079 -0.108047,0.260835 -0.0667559,0.066752 -0.15898,0.108047 -0.260831,0.108047 -0.10185,0 -0.194075,-0.0412953 -0.260831,-0.108047 -0.066752,-0.0667559 -0.108047,-0.158984 -0.108047,-0.260835 0,-0.101846 0.0412953,-0.194075 0.108047,-0.260831 0.0667559,-0.066752 0.15898,-0.108047 0.260831,-0.108047zm0.15772 0.211157c-0.0403583,-0.0403543 -0.096126,-0.0653228 -0.15772,-0.0653228 -0.0615945,0 -0.117362,0.0249685 -0.15772,0.0653228 -0.0403583,0.0403583 -0.0653268,0.096126 -0.0653268,0.15772 0,0.0615984 0.0249685,0.117366 0.0653268,0.157724 0.0403583,0.0403543 0.096126,0.0653228 0.15772,0.0653228 0.0615945,0 0.117362,-0.0249685 0.15772,-0.0653228 0.0403583,-0.0403583 0.0653268,-0.096126 0.0653268,-0.157724 0,-0.0615945 -0.0249685,-0.117362 -0.0653268,-0.15772z"/>
  </g>
 </g>
</svg>
