<svg xmlns="http://www.w3.org/2000/svg" viewBox="0 0 64 64"><defs><style>.cls-1{fill:#ccc;}.cls-2{fill:#e6e6e6;}.cls-3{fill:#e4202b;}.cls-4{fill:#4a72b2;}.cls-5{fill:#0097ce;}.cls-6{fill:#00ab2e;}</style></defs><g id="Layer_27" data-name="Layer 27"><path class="cls-1" d="M52.55,4.39H49.16a.61.61,0,0,0-.56.81c.1,0,0,3.63,0,3.74a.59.59,0,0,0,.6.65h3.29a2.41,2.41,0,0,1,2.4,2.4V53.08a2.41,2.41,0,0,1-2.4,2.4H11.45a2.41,2.41,0,0,1-2.4-2.4V12a2.41,2.41,0,0,1,2.4-2.4h3.31a.6.6,0,0,0,.6-.6c0-.07,0-3.85.05-3.79a.61.61,0,0,0-.56-.81h-3.4A7.61,7.61,0,0,0,3.85,12V53.08a7.61,7.61,0,0,0,7.6,7.6h41.1a7.61,7.61,0,0,0,7.6-7.6V12A7.61,7.61,0,0,0,52.55,4.39Z"/><rect class="cls-2" x="7.85" y="8.39" width="48.29" height="48.29" rx="3.6"/><path class="cls-3" d="M52.54,8.39H11.45A3.61,3.61,0,0,0,7.85,12v4.94a.6.6,0,0,0,.6.6H55.54a.6.6,0,0,0,.6-.6V12A3.61,3.61,0,0,0,52.54,8.39Z"/><path class="cls-2" d="M16.9,3.32A2.29,2.29,0,0,0,14.16,5.5v7c0,2.95,4.91,2.95,4.93,0v-7A2.19,2.19,0,0,0,16.9,3.32Z"/><path class="cls-2" d="M32.28,3.32A2.29,2.29,0,0,0,29.54,5.5v7c0,2.95,4.91,2.95,4.93,0v-7A2.19,2.19,0,0,0,32.28,3.32Z"/><path class="cls-2" d="M47.66,3.32A2.3,2.3,0,0,0,44.91,5.5v7c0,2.95,4.92,2.95,4.94,0v-7A2.19,2.19,0,0,0,47.66,3.32Z"/><path class="cls-4" d="M36.24,21.92c-9.47-2.9-19.55,4.62-19.4,14.55.84,20.1,29.49,20.1,30.32,0A15.23,15.23,0,0,0,36.24,21.92Z"/><path class="cls-5" d="M14.65,21.12a.6.6,0,0,1-.6-.6V19a.6.6,0,0,1,.6-.6.6.6,0,0,1,.6.6v1.5A.6.6,0,0,1,14.65,21.12Z"/><path class="cls-5" d="M14.65,26.83a.6.6,0,0,1-.6-.6v-1.5a.6.6,0,0,1,.6-.6.6.6,0,0,1,.6.6v1.5A.6.6,0,0,1,14.65,26.83Z"/><path class="cls-5" d="M16.13,21.73a.61.61,0,0,1-.42-1l1.05-1.05a.59.59,0,0,1,.85,0,.61.61,0,0,1,0,.85l-1.06,1.05A.58.58,0,0,1,16.13,21.73Z"/><path class="cls-5" d="M18.23,23.2H16.74a.6.6,0,0,1,0-1.2h1.49A.6.6,0,0,1,18.23,23.2Z"/><path class="cls-5" d="M17.18,25.73a.58.58,0,0,1-.42-.17L15.71,24.5a.59.59,0,0,1,.84-.84l1.06,1.05A.6.6,0,0,1,17.18,25.73Z"/><path class="cls-5" d="M12.12,25.73a.6.6,0,0,1-.42-1l1.05-1.05a.59.59,0,0,1,.85,0,.58.58,0,0,1,0,.84l-1,1.06A.59.59,0,0,1,12.12,25.73Z"/><path class="cls-5" d="M12.57,23.2h-1.5a.6.6,0,0,1,0-1.2h1.5A.6.6,0,0,1,12.57,23.2Z"/><path class="cls-5" d="M13.18,21.73a.6.6,0,0,1-.43-.18L11.7,20.5a.6.6,0,0,1,.85-.85l1,1.05A.61.61,0,0,1,13.18,21.73Z"/><path class="cls-5" d="M15.4,45.91a.6.6,0,0,1-.6-.6c.07-.55-.27-1.76.6-1.79a.6.6,0,0,1,.6.6C15.94,44.67,16.28,45.89,15.4,45.91Z"/><path class="cls-5" d="M15.4,50.43a.6.6,0,0,1-.6-.6c.07-.54-.27-1.76.6-1.78a.6.6,0,0,1,.6.6C15.94,49.2,16.28,50.41,15.4,50.43Z"/><path class="cls-5" d="M16.57,46.39a.6.6,0,0,1-.42-1c.42-.34,1.06-1.45,1.68-.84a.59.59,0,0,1,0,.85C17.57,45.58,17,46.45,16.57,46.39Z"/><path class="cls-5" d="M18.24,47.56H17.06a.6.6,0,0,1-.6-.6c0-.88,1.24-.54,1.78-.6A.6.6,0,0,1,18.24,47.56Z"/><path class="cls-5" d="M17.41,49.57c-.37,0-1-.82-1.26-1a.61.61,0,0,1,0-.85c.62-.61,1.27.5,1.68.83A.61.61,0,0,1,17.41,49.57Z"/><path class="cls-5" d="M13.4,49.57a.61.61,0,0,1-.43-1c.42-.33,1.06-1.44,1.69-.83a.61.61,0,0,1,0,.85C14.4,48.75,13.78,49.62,13.4,49.57Z"/><path class="cls-5" d="M13.75,47.56H12.57a.6.6,0,0,1,0-1.2h1.18A.6.6,0,0,1,13.75,47.56Z"/><path class="cls-5" d="M14.23,46.39c-.37.06-1-.81-1.26-1a.61.61,0,0,1,0-.85c.63-.61,1.27.5,1.69.84A.6.6,0,0,1,14.23,46.39Z"/><path class="cls-5" d="M49.57,21.09a.6.6,0,0,1-.6-.6V19a.6.6,0,0,1,1.2,0v1.49A.6.6,0,0,1,49.57,21.09Z"/><path class="cls-5" d="M49.57,26.8a.6.6,0,0,1-.6-.6V24.71a.6.6,0,0,1,1.2,0V26.2A.6.6,0,0,1,49.57,26.8Z"/><path class="cls-5" d="M51,21.71a.61.61,0,0,1-.42-1l1.05-1.05a.6.6,0,0,1,.85.85l-1.05,1.05A.6.6,0,0,1,51,21.71Z"/><path class="cls-5" d="M53.15,23.18H51.66a.6.6,0,0,1,0-1.2h1.49A.6.6,0,0,1,53.15,23.18Z"/><path class="cls-5" d="M52.1,25.71a.65.65,0,0,1-.43-.17l-1.05-1.06a.6.6,0,0,1,.85-.85l1.05,1.06A.6.6,0,0,1,52.1,25.71Z"/><path class="cls-5" d="M47,25.71a.6.6,0,0,1-.43-1l1.06-1.06a.6.6,0,0,1,.85.85l-1.06,1.06A.63.63,0,0,1,47,25.71Z"/><path class="cls-5" d="M47.48,23.18H46A.6.6,0,0,1,46,22h1.49A.6.6,0,0,1,47.48,23.18Z"/><path class="cls-5" d="M48.09,21.71a.59.59,0,0,1-.42-.18l-1.06-1.05a.61.61,0,0,1,0-.85.59.59,0,0,1,.85,0l1.06,1.05A.61.61,0,0,1,48.09,21.71Z"/><path class="cls-5" d="M47.86,46.84a.6.6,0,0,1-.6-.6v-1.4a.6.6,0,0,1,.6-.6.6.6,0,0,1,.6.6v1.4A.6.6,0,0,1,47.86,46.84Z"/><path class="cls-5" d="M47.86,52.19a.6.6,0,0,1-.6-.6v-1.4a.6.6,0,0,1,.6-.6.6.6,0,0,1,.6.6v1.4A.6.6,0,0,1,47.86,52.19Z"/><path class="cls-5" d="M49.16,47.41a.6.6,0,0,1-.43-1c.51-.45,1.11-1.61,1.78-1s-.5,1.3-.91,1.84A.59.59,0,0,1,49.16,47.41Z"/><path class="cls-5" d="M51,48.79H49.7a.6.6,0,0,1,0-1.2H51A.6.6,0,0,1,51,48.79Z"/><path class="cls-5" d="M50.09,51.17a.63.63,0,0,1-.43-.19c-.42-.55-1.54-1.21-.91-1.84s1.27.57,1.78,1A.6.6,0,0,1,50.09,51.17Z"/><path class="cls-5" d="M45.62,51.17a.6.6,0,0,1-.44-1c.52-.45,1.11-1.61,1.78-1s-.49,1.29-.91,1.84A.59.59,0,0,1,45.62,51.17Z"/><path class="cls-5" d="M46,48.79H44.69a.6.6,0,0,1,0-1.2H46A.6.6,0,0,1,46,48.79Z"/><path class="cls-5" d="M46.55,47.41a.59.59,0,0,1-.44-.19c-.41-.54-1.54-1.2-.9-1.84s1.26.57,1.78,1A.6.6,0,0,1,46.55,47.41Z"/><path class="cls-6" d="M37.91,22.52a.47.47,0,0,0-.16,0,.58.58,0,0,0-.67.4l-1.21,3.48a2.21,2.21,0,0,0-.09,1.15l.49,2.36c0,.7,1.48,2.23,1.85,2.8.1.18,1.19,1.21,1.35,1.38a2.09,2.09,0,0,0,1.51.63c.71,0,2-.26,2.2.72.08.26.61,2.69.75,2.87L45.35,41a.6.6,0,0,0,.8.33.64.64,0,0,0,.32-.33,15,15,0,0,0,.69-4.51A15.12,15.12,0,0,0,37.91,22.52Z"/><path class="cls-6" d="M24.19,34.81l1.32,1.27a2.16,2.16,0,0,0,2.6.29c.24-.14,3.36-2,3.45-2.16,3-2.85,2.8-3.57,2.72-3.88-.15-.58-1.45-3.42-2.53-5.71-.32-.49.44-1.84.62-2.49a.62.62,0,0,0-.25-.7C24.69,21,18,27,17,34.32a.58.58,0,0,0,.64.67h0l5.82-.45A.94.94,0,0,1,24.19,34.81Z"/><path class="cls-6" d="M42.34,47s0,0,0-.06l-1.78-2.83c-.22-.5-2.38-1.91-2.8-2.28a2.15,2.15,0,0,0-2.83.24c-.45.38-1.26,1.58-1.86,1.51H28.52a1,1,0,0,1-.59-.2l-3.05-2.41a2.09,2.09,0,0,0-1.56-.45l-5,.54a.62.62,0,0,0-.5.81A15.24,15.24,0,0,0,32,51.63a15.07,15.07,0,0,0,10.21-4A.59.59,0,0,0,42.34,47Z"/><path class="cls-6" d="M28.88,37.34a2.15,2.15,0,0,0-.62,3,2.6,2.6,0,0,0,2.22,1.61c.15,0,2-.27,2.23-.3,1-.06,2.18-1.5,3.11-1.61H38a2.14,2.14,0,0,0,2.14-2.14A4.13,4.13,0,0,0,39.37,36a2.13,2.13,0,0,0-1.88-1.11H33.33a2.1,2.1,0,0,0-1.17.34Z"/><path d="M16.84,36.47a15,15,0,0,0,.95,5.21.58.58,0,0,0,.09.25c3.58,9.71,16.54,13,24.22,5.81a.48.48,0,0,0,.21-.19,15.29,15.29,0,0,0,4-6.23.25.25,0,0,0,0-.07,15.23,15.23,0,0,0-8.44-18.72.29.29,0,0,0-.13-.05,14.54,14.54,0,0,0-6-1.15A15.16,15.16,0,0,0,16.84,36.47Zm2.41,5.65,4.2-.45a.91.91,0,0,1,.69.2l3.05,2.41a2.15,2.15,0,0,0,1.33.46h4.53a2.16,2.16,0,0,0,1.55-.66l1.18-1.22a.93.93,0,0,1,1.24-.1c.13.12,2.52,1.8,2.51,1.94L41,47.1C34.12,53.19,22.79,50.47,19.25,42.12ZM46,36.47a13.57,13.57,0,0,1-.29,2.8c0-.08-.74-1.63-.72-1.68l-.6-2.47a2.15,2.15,0,0,0-2.08-1.64H41c-.58.08-1.41-1.09-1.8-1.4a17.82,17.82,0,0,1-1.74-2.43L37,27.27c-.17-.32,1-3,1-3.4A14,14,0,0,1,46,36.47ZM36.89,23.4c-.21.83-1.37,3.26-1.11,4.11.21.69.39,2.71.88,3.25l1.48,1.94c.09.15,1.18,1.2,1.32,1.35a2.13,2.13,0,0,0,1.52.63c.71,0,2-.26,2.2.72.07.22.62,2.69.73,2.83l1.25,2.85a13.86,13.86,0,0,1-3.24,5.19A16.44,16.44,0,0,0,40,43.49l-2.27-1.7a2.15,2.15,0,0,0-2.83.24c-.45.38-1.26,1.59-1.86,1.51H28.52a1,1,0,0,1-.59-.2l-3.05-2.41a2.09,2.09,0,0,0-1.56-.45L18.8,41a13.84,13.84,0,0,1-.67-6l5.33-.42a.94.94,0,0,1,.73.27c.72.63,1.72,2,2.81,1.87.83.14,3.33-1.75,4.19-2.19a1.72,1.72,0,0,0,.37-.28c3-2.85,2.8-3.57,2.72-3.88-.15-.58-1.45-3.42-2.53-5.71-.3-.51.35-1.6.47-2.1A13.76,13.76,0,0,1,36.89,23.4Zm-6-.83a3.05,3.05,0,0,0-.26,2.56c1.4,3,2.36,5.14,2.44,5.4a10.79,10.79,0,0,1-2.54,2.94l-3.08,1.87a1,1,0,0,1-1.15-.13c-.77-.69-1.78-2.06-3-1.86l-5.05.39A14,14,0,0,1,30.93,22.57Z"/><path d="M32.16,35.21l-3.28,2.13a2.12,2.12,0,0,0-.94,1.36A2.81,2.81,0,0,0,28.7,41a2.16,2.16,0,0,0,1.78.95c.15,0,2-.27,2.23-.3,1-.06,2.18-1.5,3.11-1.61H38a2.15,2.15,0,0,0,1.88-3.17c-.48-1-1.11-2-2.36-2H33.33A2.1,2.1,0,0,0,32.16,35.21Zm6.16,1.35.48.88A1,1,0,0,1,38,38.83c-.83.06-2.62-.21-3.32.35a14.67,14.67,0,0,1-2.11,1.28l-1.93.27c-.67.14-1.05-.6-1.35-1.07a.93.93,0,0,1,.27-1.31l3.28-2.13a1,1,0,0,1,.52-.15h4.16A.93.93,0,0,1,38.32,36.56Z"/><path d="M52.54,4.39h-3A2.4,2.4,0,0,0,47.1,3.32,2.19,2.19,0,0,0,44.91,5.5V8.39H34.47V5.5a2.3,2.3,0,0,0-2.75-2.18A2.19,2.19,0,0,0,29.54,5.5V8.39H19.09V5.5A2.19,2.19,0,0,0,16.9,3.32a2.44,2.44,0,0,0-2.43,1.07h-3A7.61,7.61,0,0,0,3.85,12V53.08a7.61,7.61,0,0,0,7.61,7.6H52.54a7.61,7.61,0,0,0,7.61-7.6V12A7.61,7.61,0,0,0,52.54,4.39ZM46.11,5.5c0-.89.81-1,1.55-1a1,1,0,0,1,1,1c0,1.75,0,5.24,0,7,0,.89-.81,1-1.55,1a1,1,0,0,1-1-1Zm-15.37,0c0-.89.8-1,1.54-1a1,1,0,0,1,1,1V9s0,0,0,0v3.48a1,1,0,0,1-1,1c-.74.06-1.51-.09-1.54-1Zm-1.2,4.09v2.89a2.3,2.3,0,0,0,2.74,2.19,2.19,2.19,0,0,0,2.19-2.19V9.59H44.91v2.89a2.31,2.31,0,0,0,2.75,2.19,2.19,2.19,0,0,0,2.19-2.19V9.59h2.69a2.4,2.4,0,0,1,2.4,2.4v4.34H9.05V12a2.41,2.41,0,0,1,2.4-2.4h2.71v2.89a2.3,2.3,0,0,0,2.74,2.19,2.19,2.19,0,0,0,2.19-2.19V9.59ZM9.05,17.53H54.94V53.08a2.4,2.4,0,0,1-2.4,2.4H11.45a2.41,2.41,0,0,1-2.4-2.4Zm6.31-12c0-.89.8-1,1.54-1a1,1,0,0,1,1,1V9a0,0,0,0,0,0,0v3.47a1,1,0,0,1-1,1c-.74.06-1.51-.09-1.54-1ZM58.94,53.08a6.41,6.41,0,0,1-6.4,6.4H11.46a6.41,6.41,0,0,1-6.4-6.4V12a6.41,6.41,0,0,1,6.4-6.4h2.7v2.8H11.45A3.6,3.6,0,0,0,7.85,12V53.08a3.61,3.61,0,0,0,3.6,3.6H52.54a3.6,3.6,0,0,0,3.6-3.6V16.94s0,0,0,0V12a3.6,3.6,0,0,0-3.6-3.6H49.85V5.59h2.69a6.41,6.41,0,0,1,6.4,6.4Z"/><path d="M14.65,21.12a.6.6,0,0,0,.6-.6V19a.6.6,0,0,0-.6-.6.6.6,0,0,0-.6.6v1.5A.6.6,0,0,0,14.65,21.12Z"/><path d="M14.65,26.83a.6.6,0,0,0,.6-.6v-1.5a.6.6,0,0,0-.6-.6.6.6,0,0,0-.6.6v1.5A.6.6,0,0,0,14.65,26.83Z"/><path d="M16.13,21.73a.58.58,0,0,0,.42-.18l1.06-1.05a.61.61,0,0,0,0-.85.59.59,0,0,0-.85,0L15.71,20.7A.61.61,0,0,0,16.13,21.73Z"/><path d="M16.14,22.6a.6.6,0,0,0,.6.6h1.49a.6.6,0,0,0,.6-.6.6.6,0,0,0-.6-.6H16.74A.6.6,0,0,0,16.14,22.6Z"/><path d="M16.76,25.56a.6.6,0,0,0,.85-.85l-1.06-1.05a.59.59,0,0,0-.84.84Z"/><path d="M12.55,25.56l1-1.06c.56-.54-.3-1.4-.85-.84L11.7,24.71A.6.6,0,0,0,12.55,25.56Z"/><path d="M11.07,23.2h1.5a.6.6,0,0,0,0-1.2h-1.5A.6.6,0,0,0,11.07,23.2Z"/><path d="M12.75,21.55a.6.6,0,0,0,.85-.85l-1-1.05a.6.6,0,0,0-.85.85Z"/><path d="M14.8,44.12v1.19a.6.6,0,0,0,1.2,0V44.12A.6.6,0,0,0,14.8,44.12Z"/><path d="M15.4,48.05a.6.6,0,0,0-.6.6c.07.55-.27,1.76.6,1.78a.59.59,0,0,0,.6-.6C15.94,49.29,16.28,48.07,15.4,48.05Z"/><path d="M16.57,46.39c.38.06,1-.81,1.26-1a.59.59,0,0,0,0-.85c-.62-.61-1.26.5-1.68.84A.6.6,0,0,0,16.57,46.39Z"/><path d="M18.24,46.36H17.06a.6.6,0,0,0-.6.6c0,.88,1.24.54,1.78.6A.6.6,0,0,0,18.24,46.36Z"/><path d="M17,47.71c-.54-.56-1.41.3-.85.85.26.19.88,1.06,1.26,1a.61.61,0,0,0,.42-1Z"/><path d="M14.66,47.71a.59.59,0,0,0-.85,0c-.34.42-1.44,1.06-.84,1.68a.59.59,0,0,0,.85,0C14.16,49,15.27,48.33,14.66,47.71Z"/><path d="M14.35,47a.6.6,0,0,0-.6-.6c-.55.06-1.76-.28-1.78.6a.6.6,0,0,0,.6.6C13.11,47.5,14.33,47.84,14.35,47Z"/><path d="M13,44.53c-.6.62.5,1.27.84,1.69a.6.6,0,1,0,.85-.85C14.24,45,13.6,43.92,13,44.53Z"/><path d="M49.57,21.09a.6.6,0,0,0,.6-.6V19A.6.6,0,0,0,49,19v1.49A.6.6,0,0,0,49.57,21.09Z"/><path d="M49.57,26.8a.6.6,0,0,0,.6-.6V24.71a.6.6,0,0,0-1.2,0V26.2A.6.6,0,0,0,49.57,26.8Z"/><path d="M51,21.71a.6.6,0,0,0,.43-.18l1.05-1.05a.6.6,0,0,0-.85-.85l-1.05,1.05A.61.61,0,0,0,51,21.71Z"/><path d="M51.06,22.58a.6.6,0,0,0,.6.6h1.49a.6.6,0,1,0,0-1.2H51.66A.6.6,0,0,0,51.06,22.58Z"/><path d="M51.67,25.54a.6.6,0,0,0,.85-.85l-1.05-1.06c-.54-.55-1.41.31-.85.85Z"/><path d="M48.52,23.63a.61.61,0,0,0-.85,0l-1.06,1.06a.6.6,0,1,0,.85.85l1.06-1.06A.61.61,0,0,0,48.52,23.63Z"/><path d="M46,23.18h1.49a.6.6,0,0,0,0-1.2H46A.6.6,0,0,0,46,23.18Z"/><path d="M47.67,21.53a.6.6,0,0,0,.85-.85l-1.06-1.05c-.54-.56-1.41.3-.85.85Z"/><path d="M47.86,44.24a.6.6,0,0,0-.6.6v1.4a.6.6,0,0,0,.6.6.6.6,0,0,0,.6-.6v-1.4A.6.6,0,0,0,47.86,44.24Z"/><path d="M47.86,49.59a.6.6,0,0,0-.6.6v1.4a.6.6,0,0,0,.6.6.6.6,0,0,0,.6-.6v-1.4A.6.6,0,0,0,47.86,49.59Z"/><path d="M48.75,47.25c.67.59,1.26-.57,1.78-1a.6.6,0,0,0,0-.85c-.67-.59-1.27.57-1.78,1A.6.6,0,0,0,48.75,47.25Z"/><path d="M51,47.59H49.7a.6.6,0,0,0,0,1.2H51A.6.6,0,0,0,51,47.59Z"/><path d="M49.6,49.17a.6.6,0,0,0-.87.82c.26.21,1,1.24,1.36,1.18a.6.6,0,0,0,.44-1Z"/><path d="M46.11,49.17l-.93,1c-.54.55.35,1.39.87.82L47,50A.6.6,0,0,0,46.11,49.17Z"/><path d="M46.61,48.19a.6.6,0,0,0-.6-.6c-.67.07-1.89-.29-1.92.6a.6.6,0,0,0,.6.6C45.36,48.73,46.58,49.08,46.61,48.19Z"/><path d="M46.05,45.41a.6.6,0,0,0-.87.82c.27.22,1,1.24,1.37,1.18a.6.6,0,0,0,.44-1Z"/></g></svg>